<?xml version="1.0" encoding="utf-8"?>
<!-- Generator: Adobe Illustrator 26.0.3, SVG Export Plug-In . SVG Version: 6.00 Build 0)  -->
<svg version="1.1" id="Layer_1" xmlns="http://www.w3.org/2000/svg" xmlns:xlink="http://www.w3.org/1999/xlink" x="0px" y="0px"
	 viewBox="0 0 16 16" style="enable-background:new 0 0 16 16;" xml:space="preserve">
<style type="text/css">
	.st0{fill:#FFFFFF;}
</style>
<path d="M8,0c4.4,0,8,3.6,8,8s-3.6,8-8,8s-8-3.6-8-8S3.6,0,8,0z M4.5,7.5C4.2,7.5,4,7.7,4,8c0,0.3,0.2,0.5,0.5,0.5h5.8l-2.1,2.1
	c-0.2,0.2-0.2,0.5,0,0.7s0.5,0.2,0.7,0l3-3c0.2-0.2,0.2-0.5,0-0.7c0,0,0,0,0,0l-3-3c-0.2-0.2-0.5-0.2-0.7,0S8,5.2,8.1,5.4l2.1,2.1
	H4.5z"/>
<path class="st0" d="M10.3,7.5H4.5c0,0-0.5,0-0.5,0.5s0.6,0.5,0.5,0.5s5.8,0,5.8,0l-2.1,2.1c0,0-0.3,0.3,0,0.7c0.3,0.4,0.7,0,0.7,0
	l3-3c0,0,0.3-0.4,0-0.7s-3-3-3-3s-0.4-0.3-0.7,0s0,0.7,0,0.7L10.3,7.5z"/>
</svg>
