<svg version="1.1" id="Layer_1" xmlns="http://www.w3.org/2000/svg" xmlns:xlink="http://www.w3.org/1999/xlink" x="0px" y="0px" viewBox="0 0 225 225" style="enable-background:new 0 0 225 225;" xml:space="preserve">
<g>
	<path d="M212.1,113.9l-22.3-42.5c-0.3-0.6-0.8-1-1.4-1.2l-51.9-21.5c-1.2,1.5-2.5,3-3.9,4.3L184,74.3   c-12.2,6.6-59.8,32.5-71.9,38.7h-4.2l0,0L39.5,79.8l52-27.7c-1.3-1.3-2.5-2.7-3.6-4.2l-54.5,29l-0.3-0.1l-0.2,0.4l-0.4,0.2   c-0.5,0.3-0.9,0.7-1.2,1.3l-18.5,39.7c-0.6,1.3-0.1,2.9,1.3,3.6l75.7,37c0.4,0.2,0.8,0.3,1.2,0.3c0.3,0,0.6-0.1,0.9-0.2   c0.7-0.2,1.3-0.8,1.6-1.4l13.4-28.8l0.5,88.5L33.2,178v-42.2h-5.4v45.4l79.6,42.3v0.8l0.7-0.4l0.1,0.1l0.1-0.2l87.6-49.2v-42.7   h-5.4v39.6l-77.8,43.6l-0.5-89.1l20.5,31c0.8,1.2,2.3,1.6,3.6,0.9l74.6-40.3C212.3,116.8,212.8,115.2,212.1,113.9z M89.7,152.9   l-70.8-34.6L35,83.7l70.9,34.4L89.7,152.9z M136,151.9l-22.4-33.8c0.3,0,0.5-0.1,0.8-0.3c12.4-6.3,62.3-33.5,73-39.3l18.7,35.5   L136,151.9z"/>
	<path d="M112.5,0.6c-16.6,0-30,13.4-30,30s13.4,30,30,30s30-13.4,30-30C142.5,14.1,129.1,0.6,112.5,0.6z M106.4,45.6L94.7,30.1   l4.7-3.6l7.5,9.9L126,15.6l4.4,4L106.4,45.6z"/>
</g>
</svg>