<svg version="1.1" id="Layer_1" xmlns="http://www.w3.org/2000/svg" xmlns:xlink="http://www.w3.org/1999/xlink" x="0px" y="0px" viewBox="0 0 225 225" style="enable-background:new 0 0 225 225;" xml:space="preserve">
<g>
	<path d="M196.9,53.2l-84.7-34l-84,40.7v103.4l81.2,42.4l87.6-52.1L196.9,53.2z M108.1,93.4l-23-9.5L157.8,44l0,0l28.7,11.5   L108.1,93.4z M64.5,81.8l9.2,3.8l-0.1,10l-9.2-3.7L64.5,81.8z M67.3,76.6L140.4,37l10.3,4.1L78.1,81L67.3,76.6z M112.4,25.7   l20.9,8.4L60.2,73.6L34.9,63.2L112.4,25.7z M34.1,69.3l24.5,10.1L58.4,96l21,8.4l0.2-16.3l25.7,10.6l0.6,98.6L34,159.8L34.1,69.3   L34.1,69.3z M111.9,197.3l-0.6-98.8L191,60v90.3L111.9,197.3z"/>
	<rect x="116.7" y="163.8" transform="matrix(0.8646 -0.5025 0.5025 0.8646 -64.6058 93.8043)" width="50.1" height="5.9"/>
	<path d="M120.2,169.4l13.9-7.3l-0.2-34.5l5.9-2.2l-14.3-19.2l-11.4,29.9l6.1-2.3V169.4z M127.1,118.4l3.1,4.2l-2.4,0.9l0.2,35l-2,1   v-34.3l-1.8,0.7L127.1,118.4z"/>
	<path d="M147.9,155.8l13.4-8.6l-1-31.7l4.9-2.1L152.3,94l-10.9,30.1l6.1-3.2L147.9,155.8z M153.9,107.1l2.4,3.7l-2.1,0.9l1.1,32.4   l-1.5,1l-0.4-33.8l-1.2,0.6L153.9,107.1z"/>
</g>
</svg>