<svg version="1.1" id="Layer_1" xmlns="http://www.w3.org/2000/svg" xmlns:xlink="http://www.w3.org/1999/xlink" x="0px" y="0px" viewBox="0 0 225 225" style="enable-background:new 0 0 225 225;" xml:space="preserve">
<g>
	<path d="M112.5,206c0,0-43.8-19.1-57.3-29.8c-14.3-11.9-21.1-28.3-21.1-47V36.1C68.7,17.4,112.5,19,112.5,19s43.8-1.6,78.4,17.1   v92.7c0,18.7-6.8,35-21.1,47C156.3,186.9,112.5,206,112.5,206 M40.5,129.2c0,17.5,6.4,31.8,18.7,41.8c11.1,9.2,44.2,23.9,53.3,27.9   c9.2-4,42.6-19.1,53.3-27.9c12.3-9.9,18.7-24.7,18.7-41.8V37.7c-46.2-4.4-101.1-2-144.1,37.8L40.5,129.2L40.5,129.2z"/>
	<path d="M156.7,116.1c6,3.6,8.4,6,8.8,10.3c0,4.8-3.2,7.6-8.4,7.6c-4.4,0-9.6-2.4-13.1-5.6v12.7c4.4,2.4,9.6,4.4,15.1,4.4   c13.5,0,19.9-9.6,19.9-18.3c0.4-8-2-14.3-13.5-21.1c-5.2-3.2-9.2-5.2-9.2-9.9s4.4-6.8,8-6.8c4.8,0,9.6,2.8,12.3,5.6V83.1   c-2.4-2-7.6-4.8-15.1-4.4c-9.2,0.4-18.7,6.8-18.7,17.9C143.1,104.2,145.5,109.7,156.7,116.1 M109.7,144.8c1.2,0.4,3.2,0.8,6.4,0.8   c15.5,0,24.3-13.9,24.3-33.8c0-20.3-9.2-32.6-25.5-32.6c-7.6,0-13.5,1.6-18.7,4.8v89.9h13.5V144.8L109.7,144.8z M109.7,90.6   c1.2-0.4,3.2-1.2,4.8-1.2c8,0,11.1,6.4,11.1,21.9c0,15.1-4,22.3-11.9,22.3c-2,0-3.6-0.4-4.4-0.8V90.6H109.7z M67.9,145.5   c8.4,0,15.5-2,20.7-5.6V79.8H74.7v52.1c-1.6,1.2-3.6,1.6-6.4,1.6c-6.4,0-7.2-6-7.2-9.6V79.7H47.2v43.4   C47.2,138,54.4,145.5,67.9,145.5"/>
</g>
</svg>