<svg xmlns="http://www.w3.org/2000/svg" viewBox="0 0 890.4 320"><defs><style>.cls-1{stroke:#fff;}.cls-1,.cls-2,.cls-3,.cls-4{stroke-miterlimit:10;}.cls-2,.cls-4{fill:none;}.cls-2,.cls-3,.cls-4{stroke:#000;}.cls-2{stroke-width:5px;}.cls-3,.cls-4{stroke-width:3px;}</style></defs><g id="Color"><path class="cls-1" d="M724.5,544l.86-142.54h79L678.5,248.5,562.84,397l72.66,2.52-3,146S520.36,518.46,519.36,389s145-149.48,145-149.48S766.48,236.43,808.92,305,836.14,421,836.14,421l-11.38,36.9L804.36,491l-23.52,23.58S760.64,536.58,724.5,544Z" transform="translate(-230.77 -237)"/></g><g id="Outline"><path class="cls-2" d="M838.5,395c0,70.42-48.15,130.36-114,149.5l1-143h79l-126-153-118,151h75l-3,146c-67.85-17.88-113-78.7-113-150.5,0-85.88,71.41-155.5,159.5-155.5S838.5,309.12,838.5,395Z" transform="translate(-230.77 -237)"/></g><g id="T_P" data-name="T,P"><polyline class="cls-1" points="0 2.48 267.67 2.48 267.73 61.5 173.26 61.5 171.73 318.5 98.56 318.5 98.73 61.5 0 62.21"/><path class="cls-3" d="M1119.5,335.5c-.5-10.26-2.24-37.75-23-62-28.6-33.4-70.5-34-77.25-34l-149.39,0v316h74.7v-110l74.69-1c6.55-.11,48.33-1.48,77.25-35.95C1121.1,379.18,1120,345.48,1119.5,335.5ZM1012,384H944.56V287.79H1012s35.12,5.5,36.31,48.11S1012,384,1012,384Z" transform="translate(-230.77 -237)"/><path class="cls-4" d="M1012,384H944.56V287.79H1012s35.12,5.5,36.31,48.11S1012,384,1012,384Z" transform="translate(-230.77 -237)"/></g></svg>