<?xml version="1.0" encoding="utf-8"?>
<!-- Generator: Adobe Illustrator 26.0.3, SVG Export Plug-In . SVG Version: 6.00 Build 0)  -->
<svg version="1.1" id="Layer_1" xmlns="http://www.w3.org/2000/svg" xmlns:xlink="http://www.w3.org/1999/xlink" x="0px" y="0px"
	 viewBox="0 0 890.4 320" style="enable-background:new 0 0 890.4 320;" xml:space="preserve">
<style type="text/css">
	.st0{fill:#F8F8F9;stroke:#FAFAFA;stroke-miterlimit:10;}
	.st1{fill:none;stroke:#FFFFFF;stroke-width:5;stroke-miterlimit:10;}
	.st2{fill:#F8F8F9;stroke:#FFFFFF;stroke-miterlimit:10;}
	.st3{fill:#F8F8F9;stroke:#FAFAFA;stroke-width:3;stroke-miterlimit:10;}
	.st4{fill:none;stroke:#FFFFFF;stroke-width:3;stroke-miterlimit:10;}
</style>
<g id="Color">
	<path class="st0" d="M493.7,307l0.9-142.5h79l-125.9-153L332.1,160l72.7,2.5l-3,146c0,0-112.1-27.1-113.1-156.5
		s145-149.5,145-149.5s102-3.1,144.4,65.5s27.2,116,27.2,116L594,220.9L573.6,254l-23.5,23.6C550.1,277.6,529.9,299.6,493.7,307z"/>
</g>
<g id="Outline">
	<path class="st1" d="M607.7,158c0,70.4-48.2,130.4-114,149.5l1-143h79l-126-153l-118,151h75l-3,146c-67.8-17.9-113-78.7-113-150.5
		c0-85.9,71.4-155.5,159.5-155.5S607.7,72.1,607.7,158z"/>
</g>
<g id="T_P">
	<polyline class="st2" points="0,2.5 267.7,2.5 267.7,61.5 173.3,61.5 171.7,318.5 98.6,318.5 98.7,61.5 0,62.2 	"/>
	<path class="st3" d="M888.7,98.5c-0.5-10.3-2.2-37.8-23-62c-28.6-33.4-70.5-34-77.2-34H639.1v316h74.7v-110l74.7-1
		c6.6-0.1,48.3-1.5,77.2-36C890.3,142.2,889.2,108.5,888.7,98.5z M781.2,147h-67.4V50.8h67.4c0,0,35.1,5.5,36.3,48.1
		S781.2,147,781.2,147z"/>
	<path class="st4" d="M781.2,147h-67.4V50.8h67.4c0,0,35.1,5.5,36.3,48.1S781.2,147,781.2,147z"/>
</g>
</svg>
